<svg width="12" height="12" viewBox="0 0 12 12" fill="none" xmlns="http://www.w3.org/2000/svg">
<path d="M0.291891 6.7149L5.29189 11.7149C5.38699 11.8059 5.49914 11.8773 5.62189 11.9249C5.86535 12.0249 6.13843 12.0249 6.38189 11.9249C6.50464 11.8773 6.61679 11.8059 6.71189 11.7149L11.7119 6.71489C11.8051 6.62166 11.8791 6.51097 11.9295 6.38914C11.98 6.26732 12.006 6.13675 12.006 6.00489C12.006 5.73859 11.9002 5.4832 11.7119 5.29489C11.5236 5.10659 11.2682 5.0008 11.0019 5.0008C10.7356 5.0008 10.4802 5.10659 10.2919 5.29489L7.00189 8.5949L7.00189 1.0049C7.00189 0.739679 6.89653 0.485324 6.709 0.297788C6.52146 0.110252 6.26711 0.00489571 6.00189 0.00489574C5.73667 0.00489576 5.48232 0.110252 5.29478 0.297788C5.10725 0.485325 5.00189 0.739679 5.00189 1.0049L5.00189 8.5949L1.71189 5.2949C1.61893 5.20117 1.50833 5.12677 1.38647 5.076C1.26461 5.02524 1.1339 4.9991 1.00189 4.9991C0.869878 4.9991 0.739172 5.02524 0.617313 5.076C0.495453 5.12677 0.384854 5.20117 0.291891 5.2949C0.198162 5.38786 0.123766 5.49846 0.0729975 5.62032C0.0222286 5.74218 -0.00390869 5.87288 -0.00390868 6.0049C-0.00390867 6.13691 0.0222287 6.26761 0.0729976 6.38947C0.123766 6.51133 0.198163 6.62193 0.291891 6.7149Z" fill="white"/>
</svg>
